Patient4_TMGait_0pt7_02_right_33_EMG.mot
version=1
nRows=16
nColumns=33
inDegrees=no
endheader
time	1LAddLong	2LGlutMax	3LGlutMed	4LIliopsoas	5LSemiMemb	6LBicFemLong	7LRecFem	8LVastMed	9LVastLat	10LGasMed	11LTibAnt	12lTibPost	13LPeroneusLong	14LSol	15LExtDigLong	16LFlexDigLong	17RAddLong	18RGlutMax	19RGlutMed	20RIliopsoas	21RSemiMemb	22RBicFemLong	23RRecFem	24RVastMed	25RVastLat	26RGasMed	27RTibAnt	28RTibPost	29RPeroneusLong	30RSol	31RExtDigLong	32RFlexDigLong
37.975	-0.026703	-0.24948	-0.3122	-0.007019	0.056305	0.19333	-0.1413	-0.021362	0.24338	-0.028534	0.018616	-0.003204	-0.13123	-0.072632	-0.069275	-0.002747	0.029602	0.065308	0.10437	-0.034332	-0.03479	0.027771	-0.43854	-0.10529	0.032959	-0.020447	-0.53986	-0.003662	0.091095	0.067596	-0.000305	-0.013123
37.976	-0.04715	-0.24109	-0.17929	0.002136	0.031433	0.084229	-0.12528	-0.023499	0.025787	-0.003815	-0.06424	-0.006561	0.085754	-0.060577	-0.013123	-0.00824	0.031128	0.015869	-0.21729	0.097961	-0.071259	-0.033417	-0.45853	-0.088959	0.026855	-0.019684	-0.41153	-0.000916	0.06958	0.054626	0.001831	-0.006409
37.977	-0.081329	-0.11169	-0.05249	0.007477	-0.027008	0.061646	0.047913	0.013275	-0.074768	0.089417	-0.01236	-0.006104	-0.046539	-0.092163	0.056	-0.009003	0.035095	0.027771	-0.20462	0.16647	-0.10849	-0.069733	-0.42572	-0.112	0.027313	-0.011444	0.13397	0.004272	0.02533	-0.01236	0.005493	-0.012054
37.978	-0.073547	0.007629	0.050812	0.033722	-0.040588	0.047913	0.14084	0.010071	-0.11871	0.1828	0.010986	0.020599	-0.12497	-0.066681	0.13428	-0.010681	0.041504	0.047455	-0.017548	0.19073	-0.15671	-0.066528	-0.45441	-0.17075	0.030518	-0.018463	-0.027771	-0.005035	0.050201	0.071411	-0.002441	-0.018311
37.979	-0.034332	0.023041	0.15869	0.024719	-0.066528	0.19547	0.056	0.005341	-0.019226	0.20309	-0.002441	0.010529	-0.063934	-0.032196	0.12177	-0.02243	0.039215	0.010529	0.033722	0.1561	-0.16266	-0.043793	-0.48798	-0.16632	0.0177	-0.020599	-0.15152	-0.005035	0.029602	0.11597	-0.002441	-0.029907
37.98	0.003815	0.11978	-0.002289	0.027618	-0.10681	0.26596	-0.069275	-0.006256	0.14328	0.18524	-0.000763	0.011444	-0.041504	-0.048523	0.063171	-0.02533	0.054169	0.05188	-0.057373	0.1387	-0.14221	-0.11139	-0.47272	-0.11292	0.018463	-0.018311	0.15793	-0.003815	-0.040588	0.10269	-0.002136	-0.028076
37.981	0.010223	0.1326	0.000763	-0.02121	-0.12787	0.45883	-0.079803	0.003052	0.25162	0.063477	0.002747	0.004272	-0.067596	-0.029907	0.010681	-0.004578	0.092468	0.001678	-0.2002	0.09964	-0.12466	-0.21255	-0.46692	-0.10819	0.014648	-0.013428	0.61874	-0.006409	-0.15259	0.033875	-0.001068	-0.030212
37.982	-0.005951	0.077362	0.1149	-0.006561	-0.20081	0.57297	-0.046844	0.010681	0.31921	-0.18723	-0.04303	0.009003	-0.039673	-0.021973	-0.011597	-0.001831	0.10468	0.008087	-0.042572	0.044708	-0.13657	-0.25742	-0.49469	-0.14069	0.006409	-0.013428	0.87769	-0.00412	-0.18616	-0.037842	-0.002136	-0.035706
37.983	-0.010529	0.038605	0.092316	0.012054	-0.19821	0.54291	0.17227	-0.00885	0.44571	-0.25726	-0.019684	-0.005493	0.009766	0.015411	-0.018005	0.010223	0.041199	0.001984	-0.039673	0.098877	-0.11948	-0.2301	-0.50354	-0.11215	0.009155	-0.015564	0.32989	-0.009003	-0.21362	-0.07019	0.001984	-0.031433
37.984	-0.001984	-0.025177	0.070648	-0.013428	-0.1149	0.47318	0.39917	-0.030518	0.30106	-0.16525	0.088654	0.00061	-0.042572	0.088806	-0.034027	0.009155	0.005341	0.022125	-0.027924	0.13062	-0.084839	-0.24139	-0.52139	-0.033722	0.013885	-0.005341	-0.095215	-0.001526	-0.19455	-0.079041	-0.003815	-0.027466
37.985	0.001984	-0.14664	0.053101	-0.013428	0.014191	0.40894	0.26611	-0.038605	0.30792	-0.10178	0.19379	0.009308	-0.035858	-0.02243	-0.033417	-0.010834	-0.02182	-0.049438	-0.053253	0.10056	-0.019226	-0.25665	-0.56747	0.051575	0.027313	0.001984	-0.24536	-0.000458	-0.055695	-0.10361	-0.00061	-0.026245
37.986	0.044861	-0.26871	-0.022888	0.004578	0.093536	0.1471	0.10101	-0.047607	0.33173	-0.061951	0.0737	0.005341	-0.054474	-0.081177	0.018616	0.018005	-0.061188	0.052338	-0.054779	0.05127	0.037689	-0.061646	-0.57816	0.044403	0.02121	-0.00473	-0.088959	-0.004272	0.099792	-0.11826	-0.002289	-0.023346
37.987	0.087585	-0.32852	-0.087585	0.018463	0.16113	-0.35294	0.15839	-0.047455	0.1619	-0.025177	-0.080414	0.03479	-0.098267	-0.044556	0.025482	-0.026398	-0.055237	0.04425	0.079498	-0.057068	0.060577	0.038605	-0.57526	0.02655	0.016022	-0.012054	0.27466	0.005798	-0.024872	-0.022736	-0.000305	-0.030365
37.988	0.10864	-0.43488	-0.10437	0	0.21042	-0.52078	0.13596	-0.010071	-0.093384	-0.003357	-0.29159	0.014191	-0.097656	0.019379	-0.078278	-0.46631	-0.0354	0.042877	0.11124	-0.092468	0.079956	0.14847	-0.51621	-0.028229	-0.01358	-0.005493	0.54108	-0.006714	-0.094147	0.027771	-0.000153	-0.019073
37.989	0.10208	-0.47577	-0.15839	-0.003052	0.17639	-0.55069	0.042419	0.037384	-0.33585	-0.007629	-0.23514	-0.03952	-0.080872	0.055847	0.18601	-0.096893	-0.004425	0.090637	0.080109	-0.14084	0.069733	0.14175	-0.53696	0.029144	-0.009613	-0.003357	0.32089	0.001984	-0.10284	0.046997	0.001526	-0.025024
37.99	0.089111	-0.56534	-0.27374	0.007019	0.1387	-0.62363	-0.073395	0.046997	-0.51041	-0.048218	-0.02594	-0.02655	-0.029755	0.053253	0.42908	0.61951	0.01709	0.10681	0.050049	-0.10681	0.10346	0.14526	-0.49759	0.020905	-0.005341	-0.007172	0.068207	-0.004578	-0.082092	0.04425	-0.00061	-0.021515
